<svg width="88" height="88" viewBox="0 0 88 88" fill="none" xmlns="http://www.w3.org/2000/svg">
<g id="logo_ragrs" clip-path="url(#clip0_63_14817)">
<g id="logo-group">
<path id="Base" d="M44 88C68.3005 88 88 68.3005 88 44C88 19.6995 68.3005 0 44 0C19.6995 0 0 19.6995 0 44C0 68.3005 19.6995 88 44 88Z" fill="#002B70"/>
<g id="Text">
<path id="Vector" d="M2.92271 43.7183C2.91457 43.215 2.95071 42.7588 3.03293 42.3486C3.11515 41.9384 3.25067 41.5851 3.4395 41.2879C3.62833 40.9915 3.87589 40.7621 4.18217 40.5994C4.48845 40.4368 4.86702 40.3519 5.31786 40.3446C6.00993 40.3329 6.54209 40.528 6.91613 40.931C7.29018 41.3331 7.54496 41.8797 7.6832 42.569L10.634 40.4278C10.7379 40.3528 10.7993 40.2651 10.8183 40.1648C10.8382 40.0655 10.8463 39.9733 10.8454 39.8893L11.1282 39.8848L11.1779 42.8238L10.8951 42.8283C10.8933 42.7344 10.8761 42.6531 10.8436 42.5853C10.8111 42.5175 10.7686 42.4841 10.7162 42.485C10.6638 42.485 10.6042 42.5085 10.5364 42.551C10.4687 42.5943 10.3783 42.6585 10.2645 42.7443L7.84131 44.5152L7.87926 46.763L10.6774 46.7161C10.7713 46.7143 10.8418 46.679 10.8879 46.6104C10.934 46.5417 10.9556 46.4179 10.952 46.2399L11.2348 46.2354L11.2809 48.9549L10.9981 48.9594C10.9927 48.6559 10.896 48.505 10.7072 48.5086L3.57051 48.6297C3.38168 48.6333 3.29043 48.7869 3.29494 49.0904L3.01215 49.095L2.9209 43.7192L2.92271 43.7183ZM6.60804 44.0643C6.60172 43.6867 6.56739 43.3731 6.50595 43.1229C6.44451 42.8726 6.35958 42.6747 6.25207 42.5302C6.14546 42.3856 6.01987 42.2826 5.87712 42.2221C5.73437 42.1616 5.57987 42.1326 5.41182 42.1354C5.24468 42.1381 5.09018 42.1724 4.95014 42.2375C4.8101 42.3025 4.68813 42.41 4.58603 42.5582C4.48394 42.7073 4.40624 42.9069 4.35293 43.1599C4.29963 43.412 4.27613 43.7273 4.28246 44.105L4.32854 46.8245L6.65503 46.7847L6.60895 44.0652L6.60804 44.0643Z" fill="white"/>
<path id="Vector_2" d="M10.8085 39.8414C10.8248 39.705 10.7887 39.583 10.6983 39.4764C10.6089 39.3698 10.5022 39.2614 10.3812 39.1511L5.27194 34.7078C5.16081 34.6003 5.05691 34.5036 4.96114 34.4169C4.86537 34.3301 4.77773 34.2759 4.69642 34.2533C4.59522 34.2253 4.51481 34.2407 4.45518 34.3003C4.39555 34.3599 4.34405 34.4268 4.30069 34.5018L4.02783 34.4259L4.74159 31.8663L5.01444 31.9422C5.01444 32.019 5.02258 32.0967 5.03884 32.1771C5.0542 32.2575 5.11835 32.3135 5.22857 32.3443C5.30989 32.3668 5.39481 32.3714 5.48516 32.3587C5.57551 32.3461 5.69658 32.3226 5.84746 32.2882L12.8893 30.8571C13.0149 30.8381 13.1142 30.7921 13.1883 30.7198C13.2624 30.6484 13.341 30.5635 13.4223 30.4668L13.6952 30.5427L12.9525 33.208L12.6797 33.1321C12.6905 33.0914 12.6896 33.0372 12.676 32.9677C12.6625 32.899 12.6255 32.8556 12.5649 32.8385C12.4637 32.8105 12.3219 32.8141 12.1376 32.8502L10.8564 33.1131L9.82644 36.8084L10.7498 37.6532C10.9332 37.8131 11.0705 37.9061 11.1618 37.9314C11.2729 37.9622 11.3551 37.8817 11.4084 37.6902L11.6813 37.7661L11.0823 39.9164L10.8094 39.8405L10.8085 39.8414ZM9.5834 33.3471L6.41214 33.8341L8.83169 36.0431L9.5834 33.348V33.3471Z" fill="white"/>
<path id="Vector_3" d="M7.19722 25.7173L7.44658 25.8519C7.40141 25.935 7.37159 26.0199 7.35442 26.1058C7.33726 26.1925 7.3752 26.2603 7.46736 26.3099C7.52247 26.3398 7.69052 26.3443 7.9697 26.3226C8.24888 26.3009 8.56962 26.2711 8.92921 26.2331C9.2888 26.1952 9.66013 26.1536 10.0414 26.1094C10.4227 26.0651 10.7425 26.0353 11.0009 26.0199L9.64748 23.1992C9.57701 23.0655 9.52099 22.9589 9.48214 22.8776C9.44239 22.7963 9.39541 22.7412 9.33939 22.7113C9.27525 22.677 9.21019 22.6978 9.14424 22.7755C9.07828 22.8532 9.02588 22.9291 8.98613 23.0023L8.73676 22.8676L10.0432 20.4463L10.2926 20.5809C10.2528 20.655 10.2221 20.7282 10.2013 20.7996C10.1805 20.8718 10.1769 20.9559 10.1896 21.0525C10.2031 21.1492 10.2366 21.263 10.2917 21.3931C10.3459 21.5242 10.4263 21.6895 10.5329 21.8892L12.5974 26.0407L15.0594 27.3697C15.2256 27.4592 15.3657 27.3987 15.4804 27.1863L15.7298 27.321L14.5498 29.5065L14.3005 29.3719C14.3456 29.2888 14.3619 29.2083 14.3502 29.1306C14.3384 29.0529 14.2914 28.9915 14.2083 28.9472L11.7463 27.6182L6.57019 28.2723C6.4428 28.2877 6.31089 28.3437 6.17446 28.4431C6.03804 28.5425 5.94407 28.6373 5.89438 28.7295L5.64502 28.5949L7.19812 25.7173H7.19722Z" fill="white"/>
<path id="Vector_4" d="M18.8702 21.9369C18.9606 21.833 18.9985 21.711 18.9841 21.5728C18.9696 21.4346 18.9425 21.2855 18.9036 21.1256L17.1653 14.5807C17.1328 14.4298 17.1021 14.2916 17.0714 14.166C17.0406 14.0413 16.9982 13.9464 16.944 13.8823C16.8762 13.8028 16.8003 13.7702 16.7181 13.7856C16.635 13.801 16.5546 13.8281 16.4769 13.866L16.2935 13.6501L18.3191 11.9316L18.5025 12.1476C18.46 12.2108 18.423 12.2804 18.3905 12.3563C18.3579 12.4322 18.3796 12.5135 18.4537 12.6011C18.5079 12.6653 18.5766 12.7177 18.6588 12.7574C18.741 12.7981 18.854 12.846 18.9985 12.902L25.631 15.6658C25.7458 15.72 25.8542 15.738 25.9554 15.72C26.0575 15.7028 26.1686 15.6766 26.2906 15.6414L26.474 15.8573L24.3643 17.6471L24.1809 17.4312C24.2126 17.4041 24.2424 17.358 24.2704 17.2939C24.2984 17.2288 24.2912 17.1728 24.2505 17.1249C24.1827 17.0454 24.0626 16.9686 23.89 16.8945L22.682 16.394L19.7574 18.8759L20.0475 20.0929C20.1098 20.3287 20.1721 20.4823 20.2327 20.5546C20.3077 20.6431 20.4206 20.6223 20.5724 20.4931L20.7558 20.7091L19.0536 22.1528L18.8702 21.9369ZM21.4976 15.8727L18.5992 14.4976L19.3644 17.6833L21.4985 15.8727H21.4976Z" fill="white"/>
<path id="Vector_5" d="M26.5636 14.9931C26.4155 14.7274 26.3838 14.4455 26.4688 14.1456C26.5537 13.8465 26.729 13.6225 26.9946 13.4743C27.2602 13.3261 27.5421 13.2945 27.8421 13.3794C28.1411 13.4644 28.3652 13.6396 28.5134 13.9053C28.6615 14.1709 28.6896 14.4464 28.5965 14.7319C28.5034 15.0175 28.3245 15.2343 28.0598 15.3825C27.7942 15.5306 27.5159 15.5686 27.2241 15.4972C26.9323 15.4258 26.7127 15.2578 26.5645 14.9922L26.5636 14.9931Z" fill="white"/>
<path id="Vector_6" d="M39.8691 5.56813L39.543 5.5347C39.552 5.46875 39.5502 5.4055 39.5385 5.34316C39.5087 5.18867 39.3867 5.0676 39.1735 4.98086C38.9593 4.89413 38.6973 4.8345 38.3874 4.80287C38.0775 4.77125 37.7459 4.76854 37.3936 4.79294C37.0403 4.81823 36.7096 4.85979 36.4015 4.91852C36.0203 4.9917 35.6526 5.11819 35.2975 5.29799C34.9424 5.47778 34.6397 5.70908 34.3904 5.99187C34.1401 6.27466 33.9594 6.61347 33.8483 7.0083C33.7372 7.40312 33.7308 7.85758 33.8293 8.37257C33.926 8.87671 34.0995 9.29503 34.3488 9.62571C34.5991 9.95639 34.8927 10.2076 35.2288 10.3774C35.5658 10.5482 35.9317 10.6512 36.3284 10.6873C36.725 10.7234 37.1135 10.7054 37.4948 10.6322C38.0811 10.5202 38.5997 10.3702 39.0497 10.1823C39.4996 9.99524 39.8782 9.81364 40.1863 9.63655L39.9324 8.30842L37.9556 8.68698C37.811 8.71499 37.7089 8.76649 37.6493 8.84148C37.5887 8.91737 37.568 9.06012 37.5869 9.26973L37.3087 9.32304L36.9301 7.3462L37.2084 7.2929C37.2626 7.46456 37.3294 7.56575 37.4107 7.59828C37.4912 7.6308 37.6041 7.63351 37.7487 7.6055L41.6084 6.86645L41.6617 7.14472C41.462 7.2152 41.34 7.27573 41.2967 7.32632C41.2533 7.37782 41.2443 7.46998 41.2696 7.6037L41.6038 9.34834C41.6237 9.45133 41.6671 9.51187 41.7349 9.53175C41.8026 9.55072 41.8812 9.57331 41.9716 9.5986L42.0185 9.84526C41.724 10.147 41.4042 10.4108 41.0581 10.6376C40.7121 10.8635 40.3543 11.0577 39.9848 11.2195C39.6153 11.3812 39.2394 11.5086 38.8581 11.6034C38.476 11.6974 38.0992 11.7805 37.7288 11.8519C37.0078 11.9901 36.3347 12.0254 35.7086 11.9585C35.0825 11.8917 34.5241 11.7209 34.0344 11.4462C33.5447 11.1716 33.1345 10.8021 32.8057 10.3368C32.4768 9.87146 32.25 9.31491 32.1262 8.6662C32.0024 8.01749 32.007 7.41667 32.1416 6.86283C32.2753 6.30899 32.5192 5.81207 32.8725 5.37027C33.2258 4.92936 33.6793 4.55713 34.235 4.25355C34.7906 3.94998 35.4285 3.72953 36.1486 3.59129C36.6012 3.50456 37.0394 3.45306 37.4631 3.43589C37.8869 3.41873 38.2654 3.41873 38.5997 3.43409C38.9331 3.45035 39.2123 3.47203 39.4364 3.49823C39.6604 3.52534 39.7978 3.53347 39.8493 3.52353C39.9423 3.50546 40.0101 3.47203 40.0535 3.42053C40.0968 3.36994 40.1411 3.32386 40.1872 3.2832L40.3932 3.35548L39.8719 5.56813H39.8691Z" fill="white"/>
<path id="Vector_7" d="M42.0158 10.6186C42.1532 10.6096 42.2661 10.5509 42.3546 10.4434C42.4432 10.3349 42.5299 10.2112 42.6157 10.0711L46.0436 4.23095C46.1285 4.10175 46.2044 3.98249 46.2722 3.87227C46.339 3.76204 46.377 3.66627 46.3842 3.58225C46.3932 3.47835 46.3625 3.40155 46.2939 3.35366C46.2243 3.30578 46.1493 3.26783 46.0671 3.23892L46.0915 2.95703L48.7387 3.18742L48.7143 3.46931C48.6393 3.48377 48.5634 3.50635 48.4875 3.53617C48.4116 3.56689 48.3683 3.63917 48.3583 3.75391C48.3511 3.83793 48.3619 3.92286 48.3918 4.0096C48.4207 4.09633 48.4658 4.21108 48.5273 4.35292L51.2305 11.0107C51.2721 11.13 51.3353 11.2195 51.4203 11.28C51.5043 11.3405 51.6019 11.4011 51.7121 11.4634L51.6877 11.7453L48.9311 11.505L48.9555 11.2231C48.9971 11.2267 49.0504 11.2158 49.1164 11.1896C49.1814 11.1634 49.2166 11.1192 49.223 11.0568C49.232 10.9529 49.2022 10.8129 49.1335 10.6385L48.6393 9.42783L44.8185 9.09535L44.158 10.1579C44.0342 10.3684 43.9683 10.5202 43.9601 10.6141C43.9502 10.7289 44.0442 10.7948 44.2429 10.812L44.2185 11.0939L41.9941 10.9005L42.0185 10.6186H42.0158ZM48.174 8.21987L47.1124 5.19227L45.3868 7.97683L48.1749 8.21987H48.174Z" fill="white"/>
<path id="Vector_8" d="M51.769 11.8703L51.8684 11.6056C52.2307 11.742 52.4458 11.7221 52.5126 11.546L55.0306 4.86735C55.0975 4.69117 54.9493 4.53396 54.5861 4.39753L54.6855 4.13281L59.8634 6.08526C60.8049 6.44033 61.4798 6.89388 61.8881 7.44501C62.2956 7.99614 62.3435 8.68912 62.0291 9.52304C61.7147 10.357 61.2223 10.8457 60.5519 10.9903C59.8815 11.1349 59.0756 11.0301 58.1341 10.675L55.177 9.56008L54.1895 12.1784C54.1226 12.3546 54.2464 12.5018 54.5608 12.6211L54.4605 12.8858L51.769 11.8712V11.8703ZM58.8208 9.38752C59.1442 9.50949 59.4451 9.55014 59.7243 9.50949C60.0026 9.46883 60.2122 9.26283 60.3531 8.88969C60.4932 8.51745 60.4724 8.22382 60.2899 8.00879C60.1074 7.79466 59.8544 7.62661 59.5309 7.50464L56.3976 6.32378L55.6875 8.20665L58.8208 9.38752Z" fill="white"/>
<path id="Vector_9" d="M66.6487 10.0194C66.4635 9.88207 66.3144 9.8893 66.2024 10.0402L63.3907 13.8267C62.9968 14.3571 62.8974 14.8477 63.0908 15.2976C63.285 15.7484 63.7097 16.2173 64.3665 16.7052C65.0224 17.1922 65.5944 17.4642 66.0822 17.5193C66.5701 17.5744 67.0101 17.3377 67.404 16.8073L70.2157 13.0208C70.3277 12.869 70.2582 12.7001 70.0061 12.5121L70.1751 12.2854L72.1944 13.7851L72.0254 14.0119C71.8239 13.8619 71.6667 13.8628 71.5538 14.0137L68.7891 17.737C68.4205 18.2339 68.0437 18.5908 67.6606 18.8086C67.2767 19.0263 66.8701 19.1257 66.4409 19.1067C66.0109 19.0877 65.5582 18.954 65.0839 18.7056C64.6086 18.4571 64.0937 18.1273 63.5389 17.7144C62.9833 17.3015 62.518 16.904 62.1439 16.5218C61.769 16.1387 61.5106 15.7448 61.3678 15.3383C61.2251 14.9326 61.2034 14.5143 61.301 14.0842C61.3985 13.6541 61.6316 13.1907 62.0003 12.6946L64.7659 8.97135C64.8788 8.81956 64.8164 8.65694 64.5815 8.48166L64.7505 8.25488L66.8204 9.79262L66.6514 10.0194H66.6487Z" fill="white"/>
<path id="Vector_10" d="M75.9095 20.3289L73.2704 16.9643C73.0762 16.7168 72.8638 16.6842 72.6334 16.8649L72.4591 16.6427L74.1658 15.3037L74.3401 15.526C74.1423 15.6814 74.1405 15.8828 74.3347 16.1304L78.8088 21.8323L78.4628 22.1043L70.3557 22.1106L72.9948 25.4752C73.1755 25.7056 73.3571 25.7508 73.5387 25.608L73.7131 25.8303L72.0679 27.1214L71.8935 26.8991C72.0507 26.7762 72.038 26.5992 71.8564 26.3688L67.3345 20.6054L67.6805 20.3334L75.9104 20.3298L75.9095 20.3289Z" fill="white"/>
<path id="Vector_11" d="M83.7555 33.6375C83.8938 34.1208 83.9751 34.5717 84.0022 34.9891C84.0284 35.4065 83.9886 35.7833 83.8829 36.1185C83.7763 36.4537 83.5965 36.7392 83.3426 36.9759C83.0879 37.2117 82.7445 37.3915 82.3109 37.5153C81.6459 37.705 81.0803 37.6535 80.6159 37.3608C80.1506 37.068 79.763 36.6063 79.4531 35.9757L77.1537 38.8054C77.0733 38.9048 77.0363 39.0051 77.0435 39.1063C77.0507 39.2075 77.0661 39.2987 77.0887 39.3792L76.8167 39.4569L76.0108 36.6298L76.2828 36.5521C76.3081 36.6425 76.346 36.7166 76.3948 36.7735C76.4436 36.8304 76.4933 36.8521 76.5439 36.8376C76.5945 36.8232 76.646 36.7861 76.7002 36.7274C76.7544 36.6687 76.8249 36.5829 76.9134 36.4708L78.7981 34.1353L78.1819 31.9732L75.4904 32.7403C75.4001 32.7665 75.3413 32.818 75.3142 32.8966C75.288 32.9752 75.2989 33.0999 75.3477 33.2716L75.0757 33.3493L74.3303 30.7337L74.6023 30.656C74.6854 30.9478 74.8182 31.0689 74.9998 31.0164L81.8636 29.0604C82.0452 29.0089 82.094 28.8363 82.0109 28.5445L82.2828 28.4668L83.7564 33.6375H83.7555ZM80.1054 34.2528C80.2084 34.616 80.3223 34.9105 80.447 35.1364C80.5716 35.3622 80.7035 35.5312 80.8454 35.6441C80.9863 35.7562 81.1336 35.8239 81.2872 35.8456C81.4408 35.8673 81.598 35.8555 81.7588 35.8095C81.9196 35.7634 82.0597 35.6911 82.1789 35.5917C82.2982 35.4923 82.3877 35.3577 82.4482 35.1879C82.5087 35.018 82.5322 34.8039 82.5187 34.5464C82.5051 34.2889 82.4464 33.9781 82.3434 33.6158L81.598 31.0002L79.3601 31.6381L80.1054 34.2537V34.2528Z" fill="white"/>
<path id="Vector_12" d="M83.3941 47.6327C83.5088 47.6327 83.5956 47.5866 83.6525 47.4972C83.7094 47.4077 83.7374 47.2533 83.7356 47.0328L83.7013 41.9389L81.7515 41.9525L81.7723 45.0334C81.7741 45.243 81.8039 45.4047 81.8618 45.5204C81.9196 45.6351 82.0696 45.692 82.3108 45.6902L82.3126 45.973L79.8605 45.9893L79.8587 45.7065C80.0999 45.7047 80.2535 45.6459 80.3213 45.5303C80.3891 45.4146 80.4216 45.252 80.4198 45.0424L80.399 41.9615L78.2297 41.976L78.265 47.227C78.2659 47.3843 78.3029 47.5125 78.3779 47.611C78.452 47.7095 78.5514 47.7592 78.6779 47.7583L78.6797 48.0411L76.5257 48.0556L76.5239 47.7728C76.6811 47.7719 76.7697 47.7213 76.7905 47.6219C76.8112 47.5216 76.8203 47.3933 76.8194 47.2361L76.7697 39.9106L77.0525 39.9088C77.0525 39.982 77.0769 40.047 77.1247 40.1048C77.1726 40.1618 77.2431 40.1907 77.338 40.1898L84.4746 40.1419C84.5686 40.1419 84.6391 40.1121 84.6861 40.0542C84.733 39.9964 84.7556 39.9305 84.7556 39.8573L85.0384 39.8555L85.0872 47.0238C85.089 47.2442 85.1234 47.3978 85.1929 47.4873C85.2616 47.5758 85.3537 47.6201 85.4685 47.6192L85.4703 47.902L83.395 47.9164L83.3932 47.6336L83.3941 47.6327Z" fill="white"/>
<path id="Vector_13" d="M82.0335 59.5337C82.0886 59.3313 82.0561 59.165 81.935 59.034C81.8139 58.903 81.7127 58.8045 81.6332 58.7386L76.4752 54.4335C76.2981 54.2871 76.1572 54.1669 76.0524 54.073C75.9476 53.979 75.8699 53.9248 75.8193 53.9112C75.7687 53.8977 75.7253 53.8986 75.6874 53.9158C75.6503 53.9329 75.6106 53.9573 75.569 53.9889L75.2961 53.9139L75.934 51.5947L76.2069 51.6697C76.2222 51.7718 76.2809 51.8368 76.3812 51.8648C76.4318 51.8784 76.5457 51.8693 76.7237 51.8368C76.9007 51.8043 77.1212 51.7636 77.3841 51.7167L84.0618 50.6189C84.1865 50.599 84.2868 50.5503 84.3627 50.4735C84.4377 50.3967 84.5244 50.2792 84.6229 50.1211L84.8957 50.1961L84.1494 52.9093L83.8766 52.8343C83.8965 52.7638 83.8974 52.6906 83.8802 52.6147C83.863 52.5388 83.8034 52.4873 83.7031 52.4602C83.592 52.4295 83.4384 52.434 83.2432 52.472C83.0481 52.5099 82.8069 52.556 82.5214 52.6075L77.8196 53.4008L81.4065 56.4257C81.6359 56.619 81.8392 56.7979 82.0172 56.9605C82.1952 57.1231 82.3244 57.2162 82.4057 57.2388C82.5674 57.2831 82.6867 57.1638 82.7653 56.881L83.0382 56.956L82.3081 59.6087L82.0353 59.5337H82.0335Z" fill="white"/>
<path id="Vector_14" d="M74.1566 57.6762C74.0337 57.9193 74.0572 58.0837 74.2253 58.1686L80.6003 61.3778C80.7692 61.4628 80.9147 61.3832 81.0367 61.1402L81.2897 61.2676L80.116 63.5986L79.863 63.4712C79.9859 63.2273 79.9624 63.0637 79.7944 62.9788L73.4193 59.7696C73.2513 59.6847 73.1058 59.7642 72.983 60.0072L72.73 59.8798L73.9036 57.5488L74.1566 57.6762Z" fill="white"/>
<path id="Vector_15" d="M72.8738 71.0385C72.9651 71.109 73.0608 71.1262 73.1611 71.0909C73.2614 71.0557 73.378 70.9509 73.5126 70.7756L76.6152 66.7361L75.0693 65.5489L73.1928 67.9928C73.0654 68.1591 72.9895 68.3055 72.9642 68.4319C72.9398 68.5584 73.0229 68.6949 73.2144 68.8421L73.0419 69.0662L71.0967 67.5727L71.2692 67.3487C71.4608 67.495 71.618 67.5438 71.7427 67.4941C71.8673 67.4435 71.9929 67.336 72.1203 67.1698L73.9969 64.7258L72.2766 63.4049L69.0783 67.5691C68.9825 67.6938 68.9337 67.8176 68.931 67.9413C68.9283 68.0651 68.9771 68.1654 69.0774 68.2413L68.9048 68.4654L67.1963 67.1535L67.3689 66.9294C67.4935 67.0252 67.5947 67.0397 67.6715 66.9737C67.7492 66.9078 67.8351 66.812 67.9308 66.6873L72.3923 60.877L72.6163 61.0495C72.5721 61.1073 72.5504 61.1742 72.5531 61.2483C72.5558 61.3224 72.5937 61.3883 72.6687 61.4462L78.3291 65.7928C78.4041 65.8507 78.4773 65.8705 78.5505 65.8534C78.6227 65.8362 78.6815 65.7983 78.7266 65.7404L78.9507 65.913L74.585 71.5987C74.4504 71.7731 74.3836 71.9167 74.3836 72.0287C74.3836 72.1408 74.4287 72.232 74.52 72.3025L74.3474 72.5275L72.7013 71.2635L72.8738 71.0394V71.0385Z" fill="white"/>
<path id="Vector_16" d="M70.1714 75.6014C70.3024 75.5147 70.3133 75.3882 70.2039 75.2219C70.175 75.1777 70.1335 75.1298 70.0801 75.0774C70.0268 75.025 69.9275 74.9455 69.7829 74.8407L65.9738 72.1166L65.9476 72.1338L66.9956 76.7524C67.0264 76.8952 67.0544 76.9991 67.0788 77.065C67.1031 77.1301 67.1294 77.1852 67.1583 77.2286C67.2676 77.3948 67.3796 77.44 67.4935 77.3659L67.6489 77.6026L65.4037 79.0816L65.2483 78.8458C65.3097 78.8052 65.3386 78.7546 65.3368 78.694C65.3341 78.6326 65.3151 78.5766 65.2808 78.5233C65.223 78.4356 65.0811 78.3155 64.8553 78.1637L61.0118 75.3873L60.9856 75.4044L62.059 80.1189C62.0843 80.2905 62.1312 80.4287 62.2008 80.5336C62.2351 80.586 62.2903 80.6221 62.3661 80.6411C62.4411 80.66 62.5098 80.6492 62.5712 80.6094L62.7266 80.8462L60.7841 82.1264L60.6287 81.8897C60.7254 81.8264 60.7624 81.7262 60.7417 81.5897C60.7209 81.4533 60.6893 81.2853 60.6459 81.0883L59.2319 74.828C59.1922 74.6536 59.1569 74.5009 59.1271 74.3699C59.0973 74.2389 59.0594 74.1386 59.0133 74.0682C58.9726 74.0067 58.9148 73.9661 58.8398 73.9471C58.7639 73.9272 58.6871 73.9444 58.6085 73.9959L58.4531 73.7601L60.5275 72.3931L60.6829 72.6298C60.6414 72.6822 60.6043 72.7437 60.5709 72.8168C60.5375 72.8891 60.5402 72.956 60.5809 73.0174C60.6269 73.087 60.6938 73.1556 60.7823 73.2234C60.8709 73.2903 61.0019 73.3797 61.1753 73.4917L65.2365 76.3694L65.2627 76.3522L64.1939 71.6161C64.0999 71.1878 64.0241 70.9303 63.9671 70.8427C63.875 70.7027 63.7602 70.6521 63.6238 70.6927L63.4684 70.456L65.5031 69.1152L65.6585 69.3519C65.6061 69.3863 65.5618 69.4342 65.5266 69.4947C65.4913 69.5552 65.494 69.6167 65.5338 69.6781C65.5799 69.7477 65.644 69.8127 65.7271 69.8715C65.8103 69.9302 65.897 69.9916 65.99 70.0558L71.6631 74.0935C71.7615 74.1667 71.8519 74.2227 71.935 74.2624C72.0172 74.3022 72.1085 74.3013 72.2079 74.2624L72.3633 74.4991L70.3286 75.8399L70.1732 75.6032L70.1714 75.6014Z" fill="white"/>
<path id="Vector_17" d="M52.4602 78.527L52.2931 78.4719C52.2795 78.3788 52.2461 78.2984 52.1937 78.2325C52.1024 78.1186 51.9425 78.0175 51.7121 77.9298C51.4817 77.8422 51.2224 77.7717 50.9342 77.7193C50.646 77.6669 50.3469 77.6335 50.0379 77.6217C49.729 77.6091 49.4552 77.6208 49.2167 77.6561C49.0405 77.6823 48.8137 77.7283 48.5381 77.7961C48.2617 77.863 47.9951 77.9587 47.7377 78.0816C47.4802 78.2045 47.2642 78.3527 47.088 78.527C46.9128 78.7014 46.8423 78.9074 46.8775 79.1459C46.9128 79.3844 47.0293 79.5471 47.2281 79.6347C47.4269 79.7214 47.6771 79.7693 47.9807 79.7775C48.2843 79.7856 48.6258 79.7693 49.0062 79.7287C49.3874 79.688 49.7768 79.6546 50.1753 79.6275C50.5737 79.6004 50.9676 79.595 51.357 79.6112C51.7464 79.6275 52.1015 79.6998 52.4223 79.8271C52.743 79.9545 53.0159 80.1524 53.2408 80.4216C53.4658 80.69 53.614 81.0631 53.6844 81.5402C53.7314 81.8618 53.7034 82.1889 53.5995 82.5223C53.4956 82.8556 53.305 83.1646 53.0294 83.4492C52.7538 83.7338 52.3888 83.9859 51.9335 84.2073C51.479 84.4277 50.9306 84.5858 50.2873 84.6816C49.738 84.7629 49.2546 84.7918 48.8381 84.7692C48.4216 84.7457 48.0584 84.7096 47.7494 84.6599C47.4404 84.6102 47.1784 84.5587 46.9634 84.5054C46.7492 84.4521 46.574 84.4359 46.4393 84.4557C46.2939 84.4774 46.1954 84.5235 46.1421 84.5949L45.937 84.4982L46.7221 82.3958L46.8866 82.4346C46.929 82.5765 46.9878 82.6894 47.0636 82.7734C47.1648 82.8855 47.3202 82.9867 47.5299 83.0779C47.7395 83.1683 47.9807 83.2414 48.2535 83.2966C48.5264 83.3517 48.8173 83.3851 49.1272 83.3977C49.4362 83.4104 49.7416 83.3941 50.0416 83.3499C50.2701 83.3164 50.5032 83.2631 50.7409 83.1908C50.9794 83.1186 51.1917 83.0309 51.3778 82.9297C51.5639 82.8276 51.713 82.7075 51.825 82.5692C51.9371 82.431 51.9795 82.2738 51.9542 82.0976C51.9172 81.8492 51.7988 81.6757 51.5992 81.5781C51.3995 81.4805 51.1474 81.4227 50.842 81.4037C50.5376 81.3848 50.1942 81.3938 49.813 81.429C49.4317 81.4643 49.0414 81.4959 48.643 81.523C48.2445 81.5501 47.8506 81.5528 47.4603 81.5311C47.07 81.5094 46.7149 81.4345 46.3942 81.3071C46.0734 81.1797 45.8006 80.9845 45.5765 80.7207C45.3524 80.4569 45.2052 80.0919 45.1365 79.6257C45.057 79.0863 45.1338 78.6246 45.3687 78.2406C45.6036 77.8566 45.918 77.5341 46.3147 77.2748C46.7104 77.0146 47.1504 76.8149 47.6319 76.6749C48.1144 76.5348 48.568 76.4327 48.9935 76.3704C49.5844 76.2828 50.0849 76.2439 50.4933 76.252C50.9026 76.2602 51.2468 76.2936 51.5251 76.3532C51.8043 76.4129 52.0274 76.4698 52.1937 76.524C52.3608 76.5791 52.5018 76.5981 52.6156 76.5809C52.6879 76.5701 52.7493 76.5186 52.799 76.4264L53.0348 76.5186L52.4575 78.527H52.4602Z" fill="white"/>
<path id="Vector_18" d="M40.7229 84.9619L40.7546 84.6809C40.8485 84.6918 40.938 84.6881 41.0247 84.6719C41.1115 84.6556 41.1602 84.5951 41.172 84.4912C41.1792 84.4288 41.1205 84.2716 40.9958 84.0205C40.8711 83.7693 40.7239 83.4838 40.554 83.164C40.3841 82.8441 40.208 82.5162 40.0236 82.1792C39.8402 81.8422 39.693 81.5567 39.5818 81.3226L37.4713 83.632C37.3737 83.7476 37.2951 83.8389 37.2346 83.9057C37.174 83.9726 37.1406 84.0376 37.1334 84.1C37.1252 84.1723 37.1695 84.2247 37.2662 84.2572C37.3629 84.2888 37.4532 84.3096 37.5363 84.3195L37.5047 84.6005L34.7708 84.2933L34.8024 84.0123C34.8855 84.0214 34.965 84.0232 35.0391 84.015C35.1141 84.0078 35.1936 83.9798 35.2776 83.931C35.3625 83.8822 35.4547 83.8091 35.5559 83.7088C35.6571 83.6094 35.78 83.473 35.9263 83.2995L39.0054 79.8328L39.318 77.0518C39.3388 76.8639 39.2304 76.7573 38.9901 76.7302L39.0217 76.4492L41.49 76.7266L41.4584 77.0076C41.3644 76.9967 41.284 77.0121 41.2163 77.0518C41.1485 77.0916 41.1096 77.1585 41.0988 77.2524L40.7862 80.0334L43.3268 84.5906C43.3882 84.7026 43.4903 84.8038 43.6331 84.8941C43.7758 84.9836 43.8996 85.0351 44.0035 85.0468L43.9719 85.3278L40.722 84.9628L40.7229 84.9619Z" fill="white"/>
<path id="Vector_19" d="M34.6046 78.2882L34.4853 78.159C34.5187 78.0705 34.5287 77.9846 34.5151 77.9015C34.4907 77.7579 34.3995 77.5916 34.2405 77.4037C34.0824 77.2149 33.889 77.0278 33.6622 76.8417C33.4355 76.6556 33.1906 76.4821 32.9259 76.3204C32.6621 76.1596 32.4172 76.0367 32.1914 75.9518C32.0251 75.8894 31.8047 75.8199 31.53 75.7449C31.2562 75.6699 30.9771 75.6229 30.6925 75.6057C30.4079 75.5886 30.1468 75.613 29.9082 75.6798C29.6706 75.7467 29.5089 75.8931 29.424 76.1189C29.339 76.3448 29.3625 76.5436 29.4926 76.7161C29.6236 76.8887 29.8197 77.0522 30.0808 77.2067C30.3419 77.3612 30.6491 77.513 31.0015 77.6621C31.3538 77.8121 31.7107 77.9711 32.0721 78.1409C32.4335 78.3108 32.7804 78.4978 33.1129 78.7011C33.4454 78.9044 33.7201 79.1402 33.9387 79.4067C34.1574 79.6742 34.3001 79.9795 34.3661 80.3238C34.4329 80.668 34.3805 81.0655 34.2107 81.5173C34.0959 81.8209 33.9125 82.0937 33.6595 82.334C33.4065 82.5744 33.0903 82.7524 32.7109 82.8671C32.3314 82.9818 31.8896 83.0252 31.3845 82.9972C30.8804 82.9692 30.3238 82.8409 29.7149 82.6123C29.1954 82.4163 28.759 82.2075 28.4057 81.9844C28.0525 81.7621 27.7534 81.5534 27.5068 81.3601C27.261 81.1667 27.0568 80.9942 26.8951 80.8442C26.7334 80.6933 26.5888 80.5948 26.4614 80.5469C26.3241 80.4954 26.2148 80.4873 26.1344 80.5243L26.0024 80.34L27.71 78.8836L27.8347 78.9974C27.8031 79.142 27.7995 79.2694 27.8248 79.3805C27.8591 79.5278 27.9459 79.6922 28.0841 79.8729C28.2232 80.0536 28.3985 80.2352 28.6108 80.4159C28.8231 80.5966 29.0608 80.7674 29.3246 80.9282C29.5893 81.089 29.8631 81.2236 30.1477 81.3303C30.3636 81.4116 30.5931 81.4784 30.8361 81.5308C31.0801 81.5832 31.3077 81.6103 31.5192 81.6121C31.7315 81.614 31.9203 81.5814 32.0847 81.5146C32.2501 81.4477 32.3639 81.3312 32.4263 81.164C32.5148 80.9282 32.4958 80.7195 32.3684 80.5379C32.241 80.3554 32.0486 80.1819 31.7911 80.0184C31.5336 79.854 31.23 79.6949 30.8795 79.5404C30.5289 79.3859 30.173 79.2242 29.8116 79.0544C29.4502 78.8845 29.1041 78.6957 28.7734 78.487C28.4437 78.2783 28.169 78.0406 27.9504 77.7732C27.7317 77.5058 27.589 77.2031 27.5203 76.8634C27.4525 76.5246 27.5013 76.1334 27.6676 75.6925C27.86 75.182 28.1518 74.8161 28.5431 74.5947C28.9352 74.3725 29.367 74.2442 29.8387 74.2098C30.3112 74.1746 30.7918 74.2135 31.2815 74.3255C31.7712 74.4375 32.2176 74.5685 32.6196 74.7203C33.1789 74.9308 33.6351 75.1395 33.9884 75.3455C34.3417 75.5515 34.6263 75.7485 34.8413 75.9355C35.0563 76.1225 35.2235 76.2806 35.3427 76.4098C35.462 76.539 35.5758 76.624 35.6833 76.6646C35.752 76.6908 35.8306 76.6755 35.9192 76.6186L36.0809 76.8137L34.601 78.2891L34.6046 78.2882Z" fill="white"/>
<path id="Vector_20" d="M24.0185 70.7326C24.1278 70.5781 24.088 70.4353 23.8992 70.3016L24.0627 70.0703L26.0387 71.4689L25.8751 71.7002C25.8155 71.6577 25.7477 71.6397 25.6736 71.6442C25.5996 71.6496 25.5354 71.6903 25.4803 71.768L21.8654 76.8745L23.9823 78.3734C24.0591 78.4276 24.1495 78.4592 24.2525 78.4683C24.3555 78.4773 24.4494 78.4213 24.5343 78.302L24.7656 78.4655L23.4944 80.2617L23.2631 80.0982C23.3481 79.978 23.3688 79.8714 23.3264 79.7774C23.2839 79.6835 23.2243 79.6085 23.1475 79.5543L17.4501 75.522C17.3733 75.4678 17.2829 75.4361 17.1799 75.4271C17.0769 75.4181 16.983 75.4741 16.898 75.5934L16.6667 75.4298L17.938 73.6337L18.1693 73.7972C18.0843 73.9165 18.0635 74.024 18.106 74.1179C18.1485 74.2119 18.2081 74.2869 18.2849 74.3411L20.4018 75.84L24.0166 70.7326H24.0185Z" fill="white"/>
<path id="Vector_21" d="M11.4463 66.4819C11.3587 66.556 11.3216 66.6463 11.3343 66.7511C11.3478 66.8559 11.4255 66.9932 11.5683 67.1613L14.8615 71.0472L16.3487 69.7868L14.3565 67.436C14.2209 67.276 14.0945 67.1712 13.9752 67.1197C13.8568 67.0691 13.706 67.1215 13.5216 67.2779L13.3391 67.0619L15.2103 65.4763L15.3937 65.6922C15.2103 65.8476 15.129 65.9922 15.1515 66.1241C15.1741 66.256 15.2527 66.4024 15.3883 66.5623L17.3805 68.9132L19.0357 67.51L15.6403 63.5049C15.5391 63.3847 15.428 63.3106 15.3069 63.2826C15.1868 63.2537 15.0784 63.2808 14.9826 63.3621L14.8001 63.1462L16.4426 61.7539L16.6251 61.9698C16.505 62.071 16.4697 62.1677 16.5176 62.2562C16.5664 62.3457 16.6414 62.4505 16.7426 62.5707L21.4796 68.1597L21.2637 68.3431C21.2167 68.287 21.1561 68.2527 21.083 68.2392C21.0098 68.2256 20.9375 68.2491 20.8652 68.3105L15.4208 72.9256C15.3485 72.987 15.3133 73.0548 15.3151 73.1289C15.316 73.2038 15.3413 73.2689 15.3883 73.3249L15.1723 73.5074L10.5374 68.0386C10.3947 67.8705 10.2691 67.7748 10.1598 67.7513C10.0504 67.7278 9.95196 67.7522 9.86341 67.8272L9.68091 67.6112L11.2638 66.2696L11.4472 66.4855L11.4463 66.4819Z" fill="white"/>
<path id="Vector_22" d="M15.5571 61.6772C15.5246 61.6004 15.474 61.5416 15.4062 61.5019C15.3385 61.4621 15.2608 61.4612 15.174 61.4983L8.57493 64.2991C8.48819 64.3361 8.44031 64.3903 8.43127 64.4626C8.42224 64.5349 8.43398 64.6099 8.46651 64.6867L8.2063 64.7969L7.05797 62.091L7.31817 61.9807C7.33895 62.0295 7.37509 62.0738 7.42569 62.1144C7.47719 62.1551 7.5314 62.1632 7.59012 62.1388C7.63891 62.1181 7.69312 62.0729 7.75365 62.0015C7.81509 61.9301 7.87834 61.8524 7.94429 61.7666L10.8282 58.1002L6.22495 57.5943C6.07135 57.5798 5.95029 57.5717 5.86355 57.5681C5.77682 57.5654 5.70454 57.5753 5.64671 57.6006C5.54101 57.6458 5.5139 57.7307 5.56721 57.8563L5.307 57.9665L4.17041 55.2895L4.43062 55.1792C4.46314 55.2569 4.50922 55.3166 4.56704 55.3599C4.62577 55.4033 4.69805 55.4069 4.78478 55.3699L11.3839 52.5691C11.4706 52.532 11.5239 52.476 11.542 52.3992C11.5601 52.3224 11.5537 52.2465 11.5212 52.1688L11.7814 52.0586L12.7454 54.3309L12.4852 54.4411C12.375 54.1809 12.2323 54.0869 12.0588 54.161L7.25402 56.2002L7.26667 56.2291L13.8269 56.8778L13.845 56.9212L9.71513 62.0386L9.72778 62.0675L14.547 60.022C14.7205 59.9479 14.7503 59.7762 14.6355 59.5061L14.8957 59.3958L15.8173 61.5669L15.5571 61.6772Z" fill="white"/>
</g>
<g id="icon">
<path id="Vector_23" d="M24.7556 45.7168L20.8706 63.7866H40.6408C40.6408 63.7866 41.5605 66.0453 42.9158 66.0453H45.7717C45.7717 66.0453 47.5236 65.5032 47.7946 63.7866H67.5811L63.8686 45.7168H62.7962L65.6395 62.3862C65.6395 62.3862 59.0892 63.4252 55.2493 60.7599C48.3828 56.4232 44.2267 63.1984 44.2267 63.1984C44.2267 63.1984 42.6899 60.2359 38.3324 59.9739C36.4847 59.8628 34.1302 60.2368 31.1713 61.5279C28.5512 62.4314 26.428 62.5669 22.9044 62.4766L25.7169 45.7168H24.7565H24.7556Z" fill="white"/>
<path id="Vector_24" d="M44.5872 62.2341C44.5872 62.2341 48.0656 56.6488 54.7514 59.5399C61.4373 62.4311 64.6898 61.1662 64.6898 61.1662L61.9794 43.5156L61.2114 43.9547L62.8377 57.0553C62.8377 57.0553 60.3079 59.4948 54.2545 57.7781C48.2011 56.0615 45.1293 60.185 44.5872 62.2341Z" fill="white"/>
<path id="Vector_25" d="M60.2936 41.0212C60.7436 39.5024 60.9857 37.8942 60.9857 36.23C60.9857 26.924 53.4415 19.3799 44.1356 19.3799C34.8296 19.3799 27.2855 26.924 27.2855 36.23C27.2855 39.3976 28.1601 42.3602 29.6797 44.8918C28.8006 44.8755 27.8068 44.8122 26.653 44.7228L24.2136 60.8953C24.2136 60.8953 27.3758 61.7084 30.3574 60.7146C33.3389 59.7207 35.2362 58.2752 37.766 58.4559C40.2958 58.6366 42.5545 60.083 44.0001 62.2966V53.1551L44.5422 53.1253V60.5547C44.5422 60.5547 45.536 55.5647 49.3307 54.2095C53.1253 52.8542 55.5196 55.2485 58.6818 51.0021L58.1442 45.5956C58.3547 45.2812 58.5553 44.9595 58.745 44.6315L59.4949 52.2669C55.4292 57.2361 52.7188 53.5318 49.0144 55.4292C45.3101 57.3265 44.5873 61.3922 44.5873 61.3922C46.0329 58.1396 49.7824 55.2936 54.7516 56.8296C59.7208 58.3655 61.9795 55.4743 61.9795 55.4743L60.2936 41.0212ZM59.2474 35.4168H52.979C52.9139 33 52.5263 30.8108 52.0032 28.9117H57.3844C58.4613 30.8578 59.1227 33.066 59.2474 35.4168ZM36.3746 37.0431H43.2773V44.1319C42.5671 43.832 41.763 42.9709 40.612 42.6899C39.7004 42.4668 38.4815 42.3819 37.1787 42.7008C36.8092 41.2995 36.4397 39.3579 36.3746 37.0431ZM43.2773 35.4168H36.3809C36.4505 33.4391 36.7568 31.2545 37.476 28.9117H43.2773V35.4168ZM52.8416 38.9269C52.9085 38.2872 52.9519 37.6584 52.9726 37.0431H56.7718C56.208 37.6105 55.0452 38.4517 52.8407 38.9269H52.8416ZM56.3427 27.2854H51.4999C50.6263 24.734 49.5773 22.8646 48.9593 21.8826C51.9454 22.8863 54.5149 24.7963 56.3418 27.2854H56.3427ZM44.9939 21.1209C45.6029 21.1552 46.2028 21.2248 46.791 21.3287C48.1697 23.3896 49.1771 25.3827 49.9008 27.2854H44.9939V21.1209ZM44.9939 28.9117H50.46C51.1792 31.2545 51.4855 33.4391 51.5551 35.4168H44.9939V28.9117ZM51.5614 37.0431C51.5406 37.7894 51.4873 38.4968 51.4132 39.16C51.396 39.1618 51.3798 39.1645 51.3626 39.1663C46.7494 39.6885 46.1612 41.0501 44.993 43.0875V37.0431H51.5605H51.5614ZM43.2773 21.1209V27.2854H38.0352C38.7508 25.4053 39.7419 23.4366 41.0963 21.4019C41.8064 21.2573 42.5346 21.1625 43.2773 21.1209ZM38.8818 22.0334C38.2557 23.0508 37.2664 24.8596 36.436 27.2845H31.9285C33.6678 24.9156 36.0783 23.0706 38.8818 22.0334ZM30.8877 28.9108H35.9346C35.4106 30.8099 35.0239 32.9991 34.9588 35.4159H29.0256C29.1503 33.0651 29.8117 30.8569 30.8886 28.9108H30.8877ZM34.9634 37.0422C35.0284 38.9639 35.3058 41.0104 35.8786 43.1534C35.5588 43.3007 35.238 43.4751 34.92 43.6829C33.9144 44.3388 32.9088 44.6767 31.6728 44.815C30.1333 42.5842 29.1765 39.9198 29.0238 37.0422H34.9634ZM57.2949 37.0422H59.2474C59.1417 39.0326 58.652 40.9209 57.8506 42.6339L57.2949 37.0422Z" fill="white"/>
</g>
</g>
</g>
<defs>
<clipPath id="clip0_63_14817">
<rect width="88" height="88" fill="white"/>
</clipPath>
</defs>
</svg>
